<svg xmlns="http://www.w3.org/2000/svg" viewBox="0 0 390 844" role="img" aria-label="RoamFX mobile screenshot placeholder">
  <rect width="390" height="844" fill="#f8f6f0"/>
  <rect x="20" y="44" width="350" height="64" rx="12" fill="#0c7378"/>
  <text x="44" y="84" fill="#fff" font-family="Arial, sans-serif" font-size="24" font-weight="700">RoamFX</text>
  <rect x="20" y="132" width="350" height="170" rx="10" fill="#fff" stroke="#ddd3c2"/>
  <text x="40" y="172" fill="#172033" font-family="Arial, sans-serif" font-size="26" font-weight="700">Verified travel forex</text>
  <text x="40" y="208" fill="#5f6674" font-family="Arial, sans-serif" font-size="16">Compare live rates and book safely.</text>
  <rect x="40" y="238" width="150" height="42" rx="8" fill="#0c7378"/>
  <text x="68" y="265" fill="#fff" font-family="Arial, sans-serif" font-size="15" font-weight="700">Compare rates</text>
  <rect x="20" y="326" width="350" height="284" rx="10" fill="#fff" stroke="#ddd3c2"/>
  <text x="40" y="364" fill="#172033" font-family="Arial, sans-serif" font-size="20" font-weight="700">USD/INR rates</text>
  <g font-family="Arial, sans-serif" font-size="15">
    <rect x="40" y="386" width="310" height="54" rx="8" fill="#eef8f8"/>
    <text x="58" y="419" fill="#172033">Delhi Forex Hub</text><text x="282" y="419" fill="#0c7378" font-weight="700">83.20</text>
    <rect x="40" y="454" width="310" height="54" rx="8" fill="#fff7e7"/>
    <text x="58" y="487" fill="#172033">Mumbai Travel Money</text><text x="282" y="487" fill="#0c7378" font-weight="700">83.35</text>
    <rect x="40" y="522" width="310" height="54" rx="8" fill="#f5f0e8"/>
    <text x="58" y="555" fill="#172033">Partner buyback</text><text x="282" y="555" fill="#0c7378" font-weight="700">82.60</text>
  </g>
  <rect x="20" y="634" width="350" height="154" rx="10" fill="#fff" stroke="#ddd3c2"/>
  <text x="40" y="672" fill="#172033" font-family="Arial, sans-serif" font-size="20" font-weight="700">Join beta waitlist</text>
  <rect x="40" y="696" width="310" height="36" rx="8" fill="#f8f6f0" stroke="#ddd3c2"/>
  <rect x="40" y="744" width="180" height="42" rx="8" fill="#f2b84b"/>
  <text x="72" y="771" fill="#172033" font-family="Arial, sans-serif" font-size="15" font-weight="700">Request access</text>
</svg>
