<svg xmlns="http://www.w3.org/2000/svg" viewBox="0 0 512 512" role="img" aria-label="RoamFX">
  <rect width="512" height="512" fill="#0c7378"/>
  <circle cx="256" cy="256" r="188" fill="#ffffff"/>
  <path d="M128 315c50-9 82-39 98-91l14-47c4-14 23-16 31-4l30 47 51-86c8-14 29-8 29 8v195c0 12-10 22-22 22H150c-15 0-25-13-22-27v-17Z" fill="#0c7378"/>
  <path d="M166 304h157v34H166z" fill="#f2b84b"/>
  <path d="M145 158c52-25 106-31 162-17 16 4 30 10 44 18" fill="none" stroke="#f2b84b" stroke-width="26" stroke-linecap="round"/>
  <path d="m327 141 54 19-42 39" fill="none" stroke="#f2b84b" stroke-width="26" stroke-linecap="round" stroke-linejoin="round"/>
</svg>
